# xmcd
#
# Track frame offsets:
#	150
#	17049
#	32549
#	45572
#	60827
#	71495
#	86060
#	99064
#	115249
#	130817
#	143678
#	160769
#
# Disc length: 2311 seconds
#
# Revision: 1
# Processed by: cddbd v1.5.1PL0 Copyright (c) Steve Scherf et al.
# Submitted via: audiograbber 1.83.01
#
DISCID=8b09050c
DTITLE=Cenair Maicá - canto dos Livres
DYEAR=1990
DGENRE=gaucha
TTITLE0=Canto dos Livres
TTITLE1=Balaio Lança e taquara
TTITLE2=Milonga
TTITLE3=mMiguel Carai
TTITLE4=Galpão
TTITLE5=Caray Canete
TTITLE6=Bolicho
TTITLE7=O Louco
TTITLE8=Rancheira do tio Bilia
TTITLE9=Mágoas de Posteiro
TTITLE10=Rio Ibicuí
TTITLE11=Última Lembrança
EXTD=
EXTT0=
EXTT1=
EXTT2=
EXTT3=
EXTT4=
EXTT5=
EXTT6=
EXTT7=
EXTT8=
EXTT9=
EXTT10=
EXTT11=
PLAYORDER=
